<?xml version="1.0" encoding="UTF-8"?>
<svg xmlns="http://www.w3.org/2000/svg" version="1.1" viewBox="0 0 187.5 187.5">
  <!-- Generator: Adobe Illustrator 29.5.0, SVG Export Plug-In . SVG Version: 2.1.0 Build 137)  -->
  <defs>
    <style>
      .st0 {
        fill: #fff;
      }
    </style>
  </defs>
  <path d="M151.63,134.99l-106,12.69-19.4-66.99c-.6-.89-8.72.85-12.38-4.97-8.3-13.21,12.55-24.03,18.65-10.48,1.84,4.09.11,5.99,1.11,9.38l32.51,14.61,15.73-44.23c-7.84-3.56-9.05-14.94-1.43-19.39,8.52-4.98,17.74,2.6,15.77,12.09-.62,2.97-4.58,5.47-3.97,7.26l26.07,37.48,27.78-21.69c1.02-1.59-.85-3.18-1.11-4.91-2.59-17.15,22.62-17.6,20.9-.7-.57,5.55-5.31,8.61-10.52,8.95l-3.71,70.9ZM90.39,117.76c1.09-.17,4.85-.85,4.48-2.62-2.49-2.57-5.96,1.71-8.2-2.26.65-1.21,4.13-1.18,3.72-2.99-.5-2.19-3.89-.4-4.91-.44-2.85-.11-7.38-10.22-10.4-11.93-2.72,0-2.09,12.88-3.29,15.26-6.39,1.23-7.59,5.47-.07,3.48-.1,4.7-2.43,3.77-6,4.89l.04,2.6,5.22-.74c-.46,1.5-3.05,15.34.76,12.38,2.06-1.61.59-11.79,2.99-13.5l12.36-3.31c1.31,1.57,7.51,11.47,8.91,11.17.88-.19,1.24-1.45.99-2.46-.35-1.39-6.95-9.06-6.58-9.52ZM107.59,112.5c-1.95-5.86-4.08.46-5.25,1.18-1.01.63-2.57-.71-2.98-.44-.49.32-1.94,7.64-.05,8.68l2.27.33,2.24-4.5,1.15,3.01,2.22-1.49c4.04,9.13,7.5.94,9.33-4.51-1.35-1.43-4.14,5.26-5.22,5.24l.38-8.27c-1.44-2.18-3.8.99-4.11.77Z"/>
  <path d="M151.64,138l-.04,8.96c-33.93,4.37-67.98,8.08-101.87,12.8l-2.64-7.93,104.55-13.83Z"/>
  <path d="M183.76,32.25c.2,1.39,0,2.22-.71,3.41-.97,1.66-12.58,12.38-14.19,12.79-1.84-.27-2.73-1.42-1.58-3.1,1.36-2,14.58-15.05,16.48-13.1Z"/>
  <path d="M167.33,19.5c1.29,1.52-4.05,17.42-5.64,19.45-1.7,2.16-3.43,2.05-3.17-.87s4.21-14.06,5.95-16.59c.71-1.03,1.38-2.25,2.86-1.99Z"/>
  <path d="M152.38,39c-1.13.12-1.78.15-2.62-.74-1.35-1.43-4.84-16.9-3.34-18.01,2.27-.12,3.09,2.37,3.76,4.09.8,2.06,3.67,13.65,2.2,14.66Z"/>
  <path class="st0" d="M90.39,117.76c-.37.47,6.23,8.14,6.58,9.52.25,1.01-.11,2.27-.99,2.46-1.4.3-7.6-9.6-8.91-11.17l-12.36,3.31c-2.39,1.72-.92,11.9-2.99,13.5-3.81,2.96-1.22-10.88-.76-12.38l-5.22.74-.04-2.6c3.57-1.12,5.91-.19,6-4.89-7.52,1.98-6.31-2.25.07-3.48,1.2-2.37.58-15.26,3.29-15.26,3.02,1.71,7.55,11.82,10.4,11.93,1.02.04,4.41-1.75,4.91.44.41,1.81-3.07,1.77-3.72,2.99,2.24,3.97,5.71-.31,8.2,2.26.37,1.77-3.39,2.45-4.48,2.62ZM80.68,110.99c.72-.81-3.93-7.3-4.47-6.74l-.75,7.5,5.23-.76ZM83.55,113.33l-8.74,2.28-.1,2.89,10.45-2.25-1.61-2.91Z"/>
  <path class="st0" d="M107.59,112.5c.31.22,2.67-2.95,4.11-.77l-.38,8.27c1.08.02,3.87-6.67,5.22-5.24-1.83,5.45-5.29,13.64-9.33,4.51l-2.22,1.49-1.15-3.01-2.24,4.5-2.27-.33c-1.89-1.04-.44-8.35.05-8.68.41-.27,1.96,1.06,2.98.44,1.17-.72,3.3-7.04,5.25-1.18Z"/>
  <polygon points="83.55 113.33 85.16 116.24 74.71 118.5 74.81 115.6 83.55 113.33"/>
  <path d="M80.68,110.99l-5.23.76.75-7.5c.55-.56,5.2,5.94,4.47,6.74Z"/>
</svg>