<svg shape-rendering="geometricPrecision" xmlns="http://www.w3.org/2000/svg" viewBox="0 0 187.5 187.5">
  <path fill="currentColor" d="M151.6,135.0l-106,12.7-19.4-67.0c-.6-.89-8.7.85-12.4-5.0-8.3-13.2,12.6-24.0,18.6-10.5,1.8,4.1.11,6.0,1.1,9.4l32.5,14.6,15.7-44.2c-7.8-3.6-9.1-14.9-1.4-19.4,8.5-5.0,17.7,2.6,15.8,12.1-.6,3.0-4.6,5.5-4.0,7.3l26.1,37.5,27.8-21.7c1.0-1.6-.9-3.2-1.1-4.9-2.6-17.1,22.6-17.6,20.9-.7-.6,5.5-5.3,8.6-10.5,8.9l-3.7,70.9Z"/>
  <path fill="currentColor" d="M151.6,138l-.0,9.0c-33.9,4.4-68.0,8.1-101.9,12.8l-2.6-7.9 104.5-13.8Z"/>
  <path fill="currentColor" d="M183.8,32.2c.2,1.4,0,2.2-.7,3.4-1.0,1.7-12.6,12.4-14.2,12.8-1.8-.3-2.7-1.4-1.6-3.1,1.4-2.0,14.6-15.1,16.5-13.1Z"/>
  <path fill="currentColor" d="M167.3,19.5c1.3,1.5-4.0,17.4-5.6,19.4-1.7,2.2-3.4,2.0-3.2-.9s4.2-14.1,6.0-16.6c.7-1.0,1.4-2.2,2.9-2.0Z"/>
  <path fill="currentColor" d="M152.4,39c-1.1.1-1.8.2-2.6-.7-1.4-1.4-4.8-16.9-3.3-18.0,2.3-.1,3.1,2.4,3.8,4.1.8,2.1,3.7,13.7,2.2,14.7Z"/>
  <path fill="#fff" d="M90.4,117.8c-.4.5,6.2,8.1,6.6,9.5.2,1.0-.1,2.3-1.0,2.5-1.4.3-7.6-9.6-8.9-11.2l-12.4,3.3c-2.4,1.7-.9,11.9-3.0,13.5-3.8,3.0-1.2-10.9-.8-12.4l-5.2.7-.0-2.6c3.6-1.1,5.9-.2,6.0-4.9-7.5,2.0-6.3-2.2.1-3.5,1.2-2.4.6-15.3,3.3-15.3,3.0,1.7,7.5,11.8,10.4,11.9,1.0.0,4.4-1.8,4.9.4.4,1.8-3.1,1.8-3.7,3.0,2.2,4.0,5.7-.3,8.2,2.3.4,1.8-3.4,2.5-4.5,2.6Z"/>
  <path fill="#fff" d="M107.6,112.5c.3.2,2.7-3.0,4.1-.8l-.4,8.3c1.1.0,3.9-6.7,5.2-5.2-1.8,5.5-5.3,13.6-9.3,4.5l-2.2,1.5-1.1-3.0-2.2,4.5-2.3-.3c-1.9-1.0-.4-8.3.1-8.7.4-.3,2.0,1.1,3.0.4,1.2-.7,3.3-7.0,5.2-1.2Z"/>
  <polygon fill="currentColor" points="83.5 113.3 85.2 116.2 74.7 118.5 74.8 115.6 83.5 113.3"/>
  <path fill="currentColor" d="M80.7,111.0l-5.2.8.8-7.5c.6-.6,5.2,5.9,4.5,6.7Z"/>
</svg>
